<svg xmlns="http://www.w3.org/2000/svg" xmlns:xlink="http://www.w3.org/1999/xlink" class="map" style="width: 1152px; height: 965px;">
	<defs>
		<g class="space space-type-sea" id="space-1">
			<path d=""></path>
		</g>
		<g class="space space-type-sea" id="space-2">
			<path d=""></path>
		</g>
		<g class="space space-type-sea" id="space-3">
			<path d=""></path>
		</g>
		<g class="space space-type-sea" id="space-4">
			<path d=""></path>
		</g>
		<g class="space space-type-sea" id="space-5">
			<path d=""></path>
		</g>
		<g class="space space-type-sea" id="space-6">
			<path d=""></path>
		</g>
		<g class="space space-type-sea" id="space-7">
			<path d=""></path>
		</g>
		<g class="space space-type-sea" id="space-8">
			<path d=""></path>
		</g>
		<g class="space space-type-sea" id="space-9">
			<path d=""></path>
		</g>
		<g class="space space-type-sea" id="space-10">
			<path d=""></path>
		</g>
		<g class="space space-type-sea" id="space-11">
			<path d=""></path>
		</g>
		<g class="space space-type-sea" id="space-12">
			<path d=""></path>
		</g>
		<g class="space space-type-sea" id="space-13">
			<path d=""></path>
		</g>
		<g class="space space-type-sea" id="space-14">
			<path d=""></path>
		</g>
		<g class="space space-type-sea" id="space-15">
			<path d=""></path>
		</g>
		<g class="space space-type-sea" id="space-16">
			<path d=""></path>
		</g>
		<g class="space space-type-sea" id="space-17">
			<path d=""></path>
		</g>
		<g class="space space-type-sea" id="space-18">
			<path d=""></path>
		</g>
		<g class="space space-type-sea" id="space-19">
			<path d=""></path>
		</g>
		<g class="space space-type-land" id="space-20">
			<path d=""></path>
		</g>
		<g class="space space-type-land" id="space-21">
			<path d=""></path>
		</g>
		<g class="space space-type-land" id="space-22">
			<path d=""></path>
		</g>
		<g class="space space-type-land" id="space-23">
			<path d=""></path>
		</g>
		<g class="space space-type-land" id="space-24">
			<path d=""></path>
		</g>
		<g class="space space-type-land" id="space-25">
			<path d=""></path>
		</g>
		<g class="space space-type-land" id="space-26">
			<path d=""></path>
		</g>
		<g class="space space-type-land" id="space-27">
			<path d=""></path>
		</g>
		<g class="space space-type-land" id="space-28">
			<path d=""></path>
		</g>
		<g class="space space-type-land" id="space-29">
			<path d=""></path>
		</g>
		<g class="space space-type-land" id="space-30">
			<path d=""></path>
		</g>
		<g class="space space-type-land" id="space-31">
			<path d=""></path>
		</g>
		<g class="space space-type-land" id="space-32">
			<path d=""></path>
		</g>
		<g class="space space-type-land" id="space-33">
			<path d=""></path>
		</g>
		<g class="space space-type-land" id="space-34">
			<path d=""></path>
		</g>
		<g class="space space-type-land" id="space-35">
			<path d=""></path>
		</g>
		<g class="space space-type-land" id="space-36">
			<path d=""></path>
		</g>
		<g class="space space-type-land" id="space-37">
			<path d=""></path>
		</g>
		<g class="space space-type-land" id="space-38">
			<path d=""></path>
		</g>
		<g class="space space-type-land" id="space-39">
			<path d=""></path>
		</g>
		<g class="space space-type-land" id="space-40">
			<path d=""></path>
		</g>
		<g class="space space-type-land" id="space-41">
			<path d=""></path>
		</g>
		<g class="space space-type-land" id="space-42">
			<path d=""></path>
		</g>
		<g class="space space-type-land" id="space-43">
			<path d=""></path>
		</g>
		<g class="space space-type-land" id="space-44">
			<path d=""></path>
		</g>
		<g class="space space-type-land" id="space-45">
			<path d=""></path>
		</g>
		<g class="space space-type-land" id="space-46">
			<path d=""></path>
		</g>
		<g class="space space-type-land" id="space-47">
			<path d=""></path>
		</g>
		<g class="space space-type-land" id="space-48">
			<path d=""></path>
		</g>
		<g class="space space-type-land" id="space-49">
			<path d=""></path>
		</g>
		<g class="space space-type-land" id="space-50">
			<path d=""></path>
		</g>
		<g class="space space-type-land" id="space-51">
			<path d=""></path>
		</g>
		<g class="space space-type-land" id="space-52">
			<path d=""></path>
		</g>
		<g class="space space-type-land" id="space-53">
			<path d=""></path>
		</g>
		<g class="space space-type-land" id="space-54">
			<path d=""></path>
		</g>
		<g class="space space-type-land" id="space-55">
			<path d=""></path>
		</g>
		<g class="space space-type-land" id="space-56">
			<path d=""></path>
		</g>
		<g class="space space-type-land" id="space-57">
			<path d=""></path>
		</g>
		<g class="space space-type-land" id="space-58">
			<path d=""></path>
		</g>
		<g class="space space-type-land" id="space-59">
			<path d=""></path>
		</g>
		<g class="space space-type-land" id="space-60">
			<path d=""></path>
		</g>
		<g class="space space-type-land" id="space-61">
			<path d="m 946.9527,78.293447 -9.0777,0.08155 -3,-1.125 -2.75,0.625 -0.625,1.875 -12.5,0 -1.625,-1.375 -1,-9.75 1.875,-2.5 5.25,-0.625 -0.125,-5.375 -2.125,-0.75 -9.75,-9.375 -4.125,2.625 -10,0.875 -4.625,-0.875 -0.75,1.75 1.5,2.125 2.25,0 3.5,1.875 1,2.875 1.25,0.5 0.375,2.25 1.625,1 1,2.5 0.5,14.625 1.5,3.25 2,2.25 1.75,1.125 3.875,1 1,0 2.5,2.375 1.25,7.25 -1.875,3.750003 1,2.375 -0.5,11.25 -4,-0.5 -4.125,-7.25 -2.25,-0.25 -0.875,1.625 -5.375,0.375 -1.25,1.125 -1.5,4 -3.25,2.75 -3.75,3.75 -8.5,18.75 5.375,6.5 3.625,4.375 3.75,2.25 4.625,0.5 0.875,3.875 3.5,4 11,1.125 0.25,3.625 -1.75,2.25 -9.125,-1.5 -13.625,-0.625 -5.875,-1 -5.125,0 -2.875,-2.25 -6.75,1.25 -2.125,-1.25 -0.625,-3.75 -7.25,-0.25 -1.5,-1.5 -6.625,-0.125 0.125,6 1.125,1.75 -1.125,2.5 2.25,3.75 2.875,2.125 5.25,-0.25 3.5,3.625 2.75,0.75 3.5,8.25 0,3.25 -15.25,0.25 -2,-1.875 -4.875,-1.375 -4,-4.625 -4.375,0.875 -3.625,-0.25 -0.875,-2 -3.875,-2.875 -1.125,-6 -1,-2.875 -1.625,-1 -1.25,-0.75 -0.5,-8.625 -3.125,-1.625 1.125,-1.625 0.375,-5.625 1.125,-0.5 -5.375,-7.5 -1.625,-1.875 -8.5,-1.875 -2.125,-2.25 -1.125,-2.625 -2.5,-0.125 -2.875,0.875 -2.125,-2 -0.125,-2.375 -1.875,-1.75 -5.75,-4 -1,-3.25 1.125,-2.75 3.625,-0.875 4.125,1.375 1.75,3.125 1.25,2.5 4.375,0 2.75,3 22.5,2.625 2,0.625 6.25,-2.125 6,1.75 3.375,2 9.75,0.125 5.75,-5.875 3.5,-0.375 2.5,-2.5 -0.125,-1.625 5.125,-4.875 2.25,-3.625 -0.5,-3.5 2.625,-2.25 -0.25,-4 -1.25,-2.125 1.125,-2.000003 -1.75,-5.375 -0.375,-2.875 -1.625,-2.125 -1.875,-1.75 -1.5,-1 -0.75,-4.375 -1.875,-0.75 -2.5,1.875 -4.25,0 -3.5,-1.5 -2.125,-2.375 -7.125,0 -5.125,-2 -2.75,-2.125 -6.125,-2.5 -6.125,-1.375 -4.625,-2.125 -3.375,0.125 -7.75,-7 -5.75,0.25 -3.25,3.5 -4.25,0.125 -1.875,-0.875 -3,1.25 -2.375,6.875 -0.75,2.625 -5.875,1.25 -1.75,-1.875 0,-6.625 4.25,-3.5 -0.375,-1.75 -2.375,1 -9.125,-1.75 -1.75,-2 0.75,-3.25 3.125,-1.375 2.75,0 -1.5,-3.75 -3.875,-0.375 -5,-1 -1.375,1.75 -1.375,5.5 -0.625,6.125 -6.375,5.625 -7.625,12.625 -3,5.25 -0.25,5.875 3.375,6.625003 8.875,9.875 0.875,8 -0.125,6.75 -1.375,10.75 2.5,8.875 6.125,14.625 2.125,7.875 3.625,10 2.375,11 1.25,4.625 8.125,12.125 2.375,3.125 1.625,4.625 2.625,5.625 1.5,21.25 -0.625,11.375 -2.625,12.375 -2,3.875 -6.25,5.5 -5.375,7.125 -5.75,13.625 4.625,1.125 5.375,4.375 5.5,0.25 2.375,2.125 3.875,2.25 -0.25,2.25 -4.375,1.375 -4.75,2.25 -2.5,3.75 -9.625,0.25 -1.25,1 -0.625,8.375 -5.75,1.375 -4.25,1 -5.625,-1.75 -2.875,-2.875 -5.75,0.375 -3.125,0.25 -4.25,-2.75 -2,0 -0.125,5.5 -2.75,0.125 -3.125,-0.625 -3.625,1.875 -3.75,0.5 -2.625,2.625 -2.625,3 5.75,6.625 6.625,2.375 15.125,1.25 12.125,0.5 6.375,4.25 6.75,6.625 4.25,6.5 3.5,7.875 4.25,7.625 0.125,7.375 5.125,4 22.625,-0.625 9.625,-4.5 6.125,-6.125 6,-9.25 3.5,-7.5 4.625,-6.25 4.5,-3 5.5,0.125 6,3 3.375,3.25 4.5,1.375 6.125,-4.125 3,-6.25 1.375,-10.25 2,-8 2.25,-9.625 2.375,-3.625 6,-4.875 6.5,-4.875 6,-2.875 6.875,-1.25 12.5,0.75 16.25,0.5 30.75,-23.625 10.875,-2.125 7.875,-1.25 8.875,-5 15.75,-0.125 14.25,-4.625 7,-3 3.75,-4.75 18.125,-2.75 8,-1.625 9.2907,-0.2388 -0.2278,-9.34179 -5.0427,-13.80088 -11.943,-17.7819 0,-15.9241 -13.5355,-16.98569 -6.1043,-9.81986 -1.8578,-8.75825 -1.0616,-31.58279 -34.2368,-23.62073 -8.49283,-0.2654 -11.41226,-5.30803 -13.53548,-0.53081 -11.94307,-6.635039 z" />
			<path d="m 843.5,167 -0.125,-4.5 -4.375,1.125 -0.75,1 0.875,1 z" />
			<path d="m 847.625,158.5 3.25,0 -1.375,-2.5 -1,1.25 z" />
			<path d="m 926.125,33.374999 3.5,0.25 3.5,-2.375 1.625,-2.375 -1.25,-4.875 0.25,-5.75 -1.625,-1.750001 -3.125,0 -2,-1.875 -2,-0.125 -3.125,2.25 -0.25,6.875001 -1.375,1.875 0.25,0.875 z"></path>
		</g>
		<g class="space space-type-land" id="space-62">
			<use xlink:href="#space-61"></use>
		</g>
		<g class="space space-type-land" id="space-63">
			<use xlink:href="#space-61"></use>
		</g>
		<g class="space space-type-land" id="space-64">
			<path d=""></path>
		</g>
		<g class="space space-type-land" id="space-65">
			<path d=""></path>
		</g>
		<g class="space space-type-land" id="space-66">
			<path d=""></path>
		</g>
		<g class="space space-type-land" id="space-67">
			<path d=""></path>
		</g>
		<g class="space space-type-land" id="space-68">
			<path d=""></path>
		</g>
		<g class="space space-type-land" id="space-69">
			<path d=""></path>
		</g>
		<g class="space space-type-land" id="space-70">
			<path d=""></path>
		</g>
		<g class="space space-type-land" id="space-71">
			<use xlink:href="#space-70"></use>
		</g>
		<g class="space space-type-land" id="space-72">
			<use xlink:href="#space-70"></use>
		</g>
		<g class="space space-type-land" id="space-73">
			<path d=""></path>
		</g>
		<g class="space space-type-land" id="space-74">
			<path d=""></path>
		</g>
		<g class="space space-type-land" id="space-75">
			<path d=""></path>
		</g>
		<g class="space space-type-land" id="space-76">
			<path d=""></path>
		</g>
		<g class="space space-type-land" id="space-77">
			<path d=""></path>
		</g>
		<g class="space space-type-land" id="space-78">
			<path d=""></path>
		</g>
		<g class="space space-type-land" id="space-79">
			<use xlink:href="#space-78"></use>
		</g>
		<g class="space space-type-land" id="space-80">
			<use xlink:href="#space-78"></use>
		</g>
		<g class="space space-type-land" id="space-81">
			<path d=""></path>
		</g>
		<g class="space space-type-land" id="space-82">
			<path d=""></path>
		</g>
		<g class="space space-type-land" id="space-83">
			<path d=""></path>
		</g>
		<g class="space space-type-land" id="space-84">
			<path d="M 1151.5773,-7.909263e-6 1004.8102,0.26539363 l -0.7962,4.51182627 -5.308,3.45022 -5.04263,2.3886141 -3.45022,6.369637 2.65402,2.919417 0,5.573432 -7.16584,-1.592409 0.5308,13.535479 -4.24642,5.838833 -1.06161,3.981024 3.18482,6.369637 1.32701,5.30803 2.38861,3.184819 1.06161,3.715622 2.12321,4.246424 -0.2654,2.919417 -4.51183,0 -2.65401,-4.246424 -7.96205,-7.696645 0,-7.165842 -3.18482,-2.123212 0,-6.90044 1.32701,-3.715622 3.45022,-0.530803 -1.85781,-9.023652 -1.06161,-3.715622 3.18482,-6.369637 -0.2654,-2.654015 -2.65402,-1.59241 0,-5.042629 -3.98102,-3.9810231 -2.65402,1.8578111 0.26541,12.473872 2.38861,3.45022 0.5308,5.573433 -2.12321,1.85781 -3.71562,-1.327007 -2.12321,-3.45022 -2.91942,0.796204 -3.45022,5.838834 -1.85781,3.981023 -0.2654,5.04263 -3.18482,5.042629 -7.16584,2.388614 0.2654,1.857811 3.18482,2.388614 0,3.184818 -2.65402,2.123212 -0.2654,5.838834 2.12321,11.146865 9.81986,14.862486 11.94307,6.635039 13.53548,0.530808 11.41226,5.30803 8.49283,0.2654 34.2368,23.62073 1.0616,31.58279 1.8578,8.75825 6.1043,9.81986 13.5355,16.98569 0,15.9241 11.943,17.7819 5.0427,13.80088 0.5308,21.76293 7.6966,14.33168 5.0426,18.57811 1.8578,11.41227 -1.0616,8.49284 -11.4122,26.80556 -2.9194,7.69664 1.8578,9.28906 1.0616,7.96205 -3.9811,12.47387 -11.4122,3.71562 -12.4739,29.19417 -1.327,23.35533 2.1232,14.59709 -4.7772,10.61606 -3.7156,1.06161 -2.9195,7.69664 -10.616,11.14687 0.7962,5.30803 7.4312,8.22745 1.0616,6.63503 12.4739,15.39329 9.0237,2.91942 3.7156,0.5308 3.7156,5.57344 3.7156,12.20847 0.7962,8.49285 5.3081,4.77722 8.7582,3.71563 3.981,-0.26541 16.4549,10.08526 5.0427,2.38862 8.2274,3.18482 8.7583,1.5924 11.6776,14.06629 4.7773,1.85781 6.9004,0"></path>
		</g>
		<g class="space space-type-land" id="space-85">
			<path d=""></path>
		</g>
	</defs>
	<g class="country" id="england">
		<g>
			<use xlink:href="#space-20"></use>
		</g>
		<g>
			<use xlink:href="#space-21"></use>
		</g>
		<g>
			<use xlink:href="#space-22"></use>
		</g>
		<g>
			<use xlink:href="#space-23"></use>
		</g>
		<g>
			<use xlink:href="#space-24"></use>
		</g>
		<g>
			<use xlink:href="#space-25"></use>
		</g>
	</g>
	<g class="country" id="france">
		<g>
			<use xlink:href="#space-26"></use>
		</g>
		<g>
			<use xlink:href="#space-27"></use>
		</g>
		<g>
			<use xlink:href="#space-28"></use>
		</g>
		<g>
			<use xlink:href="#space-29"></use>
		</g>
		<g>
			<use xlink:href="#space-30"></use>
		</g>
		<g>
			<use xlink:href="#space-31"></use>
		</g>
	</g>
	<g class="country" id="germany">
		<g>
			<use xlink:href="#space-32"></use>
		</g>
		<g>
			<use xlink:href="#space-33"></use>
		</g>
		<g>
			<use xlink:href="#space-34"></use>
		</g>
		<g>
			<use xlink:href="#space-35"></use>
		</g>
		<g>
			<use xlink:href="#space-36"></use>
		</g>
		<g>
			<use xlink:href="#space-37"></use>
		</g>
	</g>
	<g class="country" id="italy">
		<g>
			<use xlink:href="#space-38"></use>
		</g>
		<g>
			<use xlink:href="#space-39"></use>
		</g>
		<g>
			<use xlink:href="#space-40"></use>
		</g>
		<g>
			<use xlink:href="#space-41"></use>
		</g>
		<g>
			<use xlink:href="#space-42"></use>
		</g>
		<g>
			<use xlink:href="#space-43"></use>
		</g>
	</g>
	<g class="country" id="austria">
		<g>
			<use xlink:href="#space-44"></use>
		</g>
		<g>
			<use xlink:href="#space-45"></use>
		</g>
		<g>
			<use xlink:href="#space-46"></use>
		</g>
		<g>
			<use xlink:href="#space-47"></use>
		</g>
		<g>
			<use xlink:href="#space-48"></use>
		</g>
		<g>
			<use xlink:href="#space-49"></use>
		</g>
	</g>
	<g class="country" id="turkey">
		<g>
			<use xlink:href="#space-50"></use>
		</g>
		<g>
			<use xlink:href="#space-51"></use>
		</g>
		<g>
			<use xlink:href="#space-52"></use>
		</g>
		<g>
			<use xlink:href="#space-53"></use>
		</g>
		<g>
			<use xlink:href="#space-54"></use>
		</g>
	</g>
	<g class="country" id="russia">
		<g>
			<use xlink:href="#space-55"></use>
		</g>
		<g>
			<use xlink:href="#space-56"></use>
		</g>
		<g>
			<use xlink:href="#space-57"></use>
		</g>
		<g>
			<use xlink:href="#space-58"></use>
		</g>
		<g>
			<use xlink:href="#space-84"></use>
		</g>
		<g>
			<use xlink:href="#space-60"></use>
		</g>
		<g>
			<use xlink:href="#space-61"></use>
		</g>
	</g>
</svg>
